<svg xmlns="http://www.w3.org/2000/svg" width="579.7" height="270.83" viewBox="0 0 579.7 270.83"><defs><style>.cls-1{isolation:isolate;}.cls-2{fill:#89431b;}.cls-3{fill:#662f14;}.cls-4,.cls-6{fill:#dfa164;}.cls-5{fill:#ce7f42;}.cls-6{opacity:0.13;mix-blend-mode:screen;}</style></defs><g class="cls-1"><g id="Layer_1" data-name="Layer 1"><path class="cls-2" d="M261.33,938.81c-12.19,0-22.13-9.6-22.17-21.4l-.22-64.21a21,21,0,0,1,5.32-14,21,21,0,0,1-4.91-13.46l-.11-61.61a47.68,47.68,0,0,1,2.08-12,24.93,24.93,0,0,1-2.42-9.29V689.53c0-11.84-.77-21.56,11.45-21.56l550.79.31c12.22,0,17.14,9.41,17.14,21.25v56.91a21,21,0,0,1-2.72,10.32,21.1,21.1,0,0,1,2.7,10.19l.32,65.31a20.81,20.81,0,0,1-.84,6,20.46,20.46,0,0,1,.82,5.79v73.29c0,11.83-9.94,21.47-22.17,21.47Z" transform="translate(-238.89 -667.97)"/><path class="cls-3" d="M817.78,838.11c0-.05,0-.1,0-.14a20.82,20.82,0,0,0,.84-5.84L818.26,767a21.1,21.1,0,0,0-2.7-10.19l.15-.26-.15-.27a21.09,21.09,0,0,0,2.72-10.34V689.53c0-11.84-4.92-21.25-17.14-21.25l-39.14,0q0,.56,0,1.11v57.08a21.15,21.15,0,0,1-2.72,10.35A21.22,21.22,0,0,1,762,747l.32,65.5a20.88,20.88,0,0,1-.84,6,20.67,20.67,0,0,1,.82,5.82v73.49c0,11.87-9.94,21.53-22.17,21.53H239.26a21.85,21.85,0,0,0,17.33,18.95h.06l.43.09.11,0,.4.07.13,0,.38.06.17,0,.35,0,.21,0,.32,0,.26,0,.27,0H260l.26,0H797c12-.3,21.6-9.84,21.6-21.52V844.05a20.46,20.46,0,0,0-.82-5.79S817.77,838.16,817.78,838.11Z" transform="translate(-238.89 -667.97)"/><path class="cls-4" d="M242.07,849l.22,68.54a6.25,6.25,0,0,0,6.25,6.23H801.69a6.25,6.25,0,0,0,6.25-6.25V839.27a6.25,6.25,0,0,0-6.25-6.25H546a5.69,5.69,0,0,0-.83.06l-32.45,4.35a6.43,6.43,0,0,1-1.64,0l-33.5-4.36a7.34,7.34,0,0,0-.81-.05H266a6.29,6.29,0,0,0-3,.77l-17.65,9.69A6.23,6.23,0,0,0,242.07,849Z" transform="translate(-238.89 -667.97)"/><path class="cls-5" d="M369.59,841.29c22.83-6,63.56-8,112.15-7.68l-4.11-.53h0a7.34,7.34,0,0,0-.81-.05H410.23c-16.81,1.25-30.87,3.16-41.26,5.88-53.64,14.06-98.17,12-126.46,7.74-.07.18-.14.37-.19.55v0c-.05.18-.09.37-.13.56v0a2,2,0,0,1,0,.24v.05a2.51,2.51,0,0,0,0,.27v0c0,.08,0,.16,0,.23v.43C270.63,853.41,315.55,855.45,369.59,841.29Z" transform="translate(-238.89 -667.97)"/><path class="cls-5" d="M546,833a5.69,5.69,0,0,0-.83.06l-12.14,1.62c97.48,3.27,210.25,12.87,274.88,18.94v-2.48c-60.21-5.65-162-14.34-254.39-18.14Z" transform="translate(-238.89 -667.97)"/><path class="cls-5" d="M512.75,837.43a6.43,6.43,0,0,1-1.64,0l-11-1.43c-45.27-.07-83,2.07-104.73,7.76-75.62,19.82-133.14,7.69-152.55,2.26h0a4,4,0,0,0-.26.56h0a5.71,5.71,0,0,0-.21.58h0c0,.1-.06.19-.08.29h0c0,.1-.05.2-.07.3h0c0,.1,0,.2-.05.3h0c0,.11,0,.21,0,.31h0c19.71,5.51,77.74,17.73,153.89-2.23,67.42-17.67,291-.94,412,9.92V853.6c-76.17-6.83-192.93-16-285.94-17.41Z" transform="translate(-238.89 -667.97)"/><path class="cls-3" d="M541.76,832.94c-19.27-7-63.45-.88-66.3-.9-58.68.34-151.92-.11-210.79,1.38,33.16.83,218.93,4.08,218.72,4.05,30.2,3.18,29.33,2.26,31.59,2.13l31.13-2.72c73.07-.07,183.75-1.89,257.5-3.74C750.89,831.82,541.55,833,541.76,832.94Z" transform="translate(-238.89 -667.97)"/><path class="cls-4" d="M801.4,668.07H248.27a6.25,6.25,0,0,0-6.25,6.25v62a6.25,6.25,0,0,0,5.74,6.23L311,747.81a4.35,4.35,0,0,0,.51,0H785.92a6.27,6.27,0,0,0,2.69-.62c5.37-2.56,10.69-4.34,15.41-6.45a6.22,6.22,0,0,0,3.63-5.68V674.32A6.25,6.25,0,0,0,801.4,668.07Z" transform="translate(-238.89 -667.97)"/><path class="cls-3" d="M787,747.84c-71.75,2.44-131.17,1.45-201.89.51-65.25-.62-178.33,4-336.47-.51v-.42c162.16-4.66,268.34.14,336.47-.51,67.76-.88,130-1.93,201.89.51Z" transform="translate(-238.89 -667.97)"/><path class="cls-4" d="M242.38,753.89l.11,65.78a6.22,6.22,0,0,0,3.81,5.74l17,7.19a6.27,6.27,0,0,0,2.44.5l212.92,0c.25,0,.48,0,.72,0,2.93-.35,23.6-2.74,30.73-2.74,8,0,30.72,2.41,33.7,2.74l.66,0,257.27,0a6.25,6.25,0,0,0,6.25-6.28l-.34-69.72a6.24,6.24,0,0,0-4.89-6.07l-14.38-3.2a6.23,6.23,0,0,0-1.36-.15H248.63A6.25,6.25,0,0,0,242.38,753.89Z" transform="translate(-238.89 -667.97)"/><path class="cls-5" d="M372.19,695.35c67.6-7.07,118.26-20.32,177.41-10.3,34.59,5.77,61.54,14.11,90.8,12.29,23-2.4,33.88-6,69.71-29.27H694.93c-3.37,2.16-6,3.76-8.28,5-1.88.83-20.83,13.3-46.84,15.07-25.94,1.6-53.09-7-88.49-13.09-69.53-12.1-128.87,7.12-202.54,11-34.1-.27-70.66-4-106.76-9.69v9.38C288.93,694.4,338.27,699.67,372.19,695.35Z" transform="translate(-238.89 -667.97)"/><path class="cls-5" d="M590.35,707.29Z" transform="translate(-238.89 -667.97)"/><path class="cls-5" d="M531.71,698c25.63,1.31,45.67,5.11,58.67,9.32l19.22,5.56c60.6,15,133.33-5.58,198-28.62v-4.67c-64.79,23.37-137.07,44.31-197.13,29.59-72.38-21.56-91.85-17.27-198.21-3.47-6.59.74-13.2,1.72-19.78,2.27-.21,0-65.62,7.54-150.51-5.8v2.92C382.22,728.5,449.39,695.54,531.71,698Z" transform="translate(-238.89 -667.97)"/><path class="cls-5" d="M590.38,707.3Z" transform="translate(-238.89 -667.97)"/><path class="cls-5" d="M443.15,751.92c-22.77-17-136.34-19.36-201.13-19.25v3.68a6.1,6.1,0,0,0,.15,1.36c69,0,189,2.64,199.41,19.51-7.92,10-128.93,5.19-199.19,1.45v5.1C326.5,768.45,472.38,773.79,443.15,751.92Z" transform="translate(-238.89 -667.97)"/><path class="cls-5" d="M465.14,734.91c30.42-4.65,233.74,9.5,342.48.73a5.25,5.25,0,0,0,0-.56v-4.34c-107.42,8.5-313.47-5.27-343.26-.71C428,735.6,253.42,714.9,242,713.54v5C259.21,720.57,428.21,740.57,465.14,734.91Z" transform="translate(-238.89 -667.97)"/><path class="cls-5" d="M628.72,752.22c-8.85,16.55,99.92,22.76,179,25.12l0-5c-81.74-2.56-166.16-8.28-174.34-18,10.51-7.88,116.38.3,174.28,5.46l0-2.72a6.21,6.21,0,0,0-.47-2.36C746.61,749.19,634.9,740.68,628.72,752.22Z" transform="translate(-238.89 -667.97)"/><path class="cls-5" d="M384.89,806.7c41.94,5.15-42.18,2.85,423,10.6l0-5.39c-130.11-7-266-10.29-393.92-11.46-6-.79-40.52-5.39-56.87-5.66-27.6-.61-67.46-2.09-114.64,8v5.65l.13,0C315.46,796.67,380.78,806.65,384.89,806.7Z" transform="translate(-238.89 -667.97)"/><path class="cls-5" d="M630.08,794.44c129,13.18,86.62-2.52,163-.33q7.35.24,14.7.66l0-5.45c-14.35-1.41-26.61-2.08-35.19-2.1-60.45.48-19,10.44-141.5-2.65C580.6,778.87,515,768.87,482.44,769c-74.44,3.72-159.8,7.54-240,16.4v4C563.57,776.62,457.33,776.76,630.08,794.44Z" transform="translate(-238.89 -667.97)"/><path class="cls-5" d="M619.31,886.86l14.2-2.89c45.62-7.53,123.57,9.23,174.43,23.15v-2.76c-42.09-12-95.58-24.09-135.94-26.22-32.18-1.77-44.86,2.88-48.86,3.33-51.74,10.16-90.73-7.8-142.37-13.19-35.84-4-168.39,1.24-238.62,6.84l0,4.14c62.27-2.86,148.36-6.48,199.58-7.16C515.69,870.68,566.1,898.23,619.31,886.86Zm0,0Z" transform="translate(-238.89 -667.97)"/><path class="cls-5" d="M642.84,864.72c11.59-.94,13-2.35,13.42-3.6a2,2,0,0,0-.75-2.23c-10-8.89-63.43-11.14-66.34-11.26-9.59-1.14-91.6-10.53-98.49-.52C478.85,864.27,615.14,867,642.84,864.72Zm-53.92-14.63c11.83.48,55.35,3.16,64.66,10.42-11,6.07-154.57,1.12-160.81-10.76C487.4,839.54,576.65,848.63,588.92,850.09Z" transform="translate(-238.89 -667.97)"/><path class="cls-5" d="M338.84,904.13c15,2.87,36.66,15.18,57.89,19.62h26.54a38.27,38.27,0,0,0,5.91-2.19c27.31-12.77,81.41-14.49,130.72-14.49,23.13,0,85.12,8.32,141.56,16.68h16.67c-60.38-9.11-132.72-19.15-158.23-19.15-49.58,0-104,1.75-131.77,14.73-27.6,12.91-65.63-13.19-88.83-17.63-15-2.87-64,3.41-97,8.25v2.51C275.17,907.65,324.26,901.34,338.84,904.13Z" transform="translate(-238.89 -667.97)"/><path class="cls-5" d="M354.36,888.56c27.63,3.78,8.24,32.79,95.71,7.12,31.87-9.35,26.12-8.49,81.26-2.28,43.81,4.94,103.83,11.7,127.73,9.78,23.09-1.85,85.44,11.12,126.77,20.57h15.86a6.21,6.21,0,0,0,2.91-.72c-38.71-9.2-118.18-27-145.94-24.77C622.48,901.18,501,883.65,482.3,883.65s-52,16.08-81.89,17.53C371,902.6,377.87,886.8,355,883.67c-12.93-1.77-69.07,2.89-112.83,7l0,5C285.83,891.55,342,886.86,354.36,888.56Z" transform="translate(-238.89 -667.97)"/><path class="cls-3" d="M787,747.42C715.07,745,652.86,746,585.1,746.91c-68.13.65-174.31-4.15-336.47.51v.21l539.87.06Z" transform="translate(-238.89 -667.97)"/><path class="cls-6" d="M777.61,711.72c0-15.28-6.61-30-18.79-43.65H248.27a6.25,6.25,0,0,0-6.25,6.25v62a6.25,6.25,0,0,0,5.74,6.23l61.07,5h-60.2a6.25,6.25,0,0,0-6.25,6.26l.11,65.78a6.23,6.23,0,0,0,2.82,5.21C299,838.1,362.73,845.75,431.08,845.75,622.46,845.75,777.61,785.74,777.61,711.72ZM510.08,830.3c6.57,0,28.06,2,35.18,2.77h-.06c-33.69,4.44-32.57,4.55-34.09,4.35l-33.48-4.35C481.48,833,501.3,830.3,510.08,830.3Z" transform="translate(-238.89 -667.97)"/></g></g></svg>